<?xml version="1.0" encoding="utf-8"?>
<COLLADA xmlns="http://www.collada.org/2005/11/COLLADASchema" version="1.4.1" xmlns:xsi="http://www.w3.org/2001/XMLSchema-instance">
  <asset>
    <contributor>
      <author>Blender User</author>
      <authoring_tool>Blender 3.6.23 commit date:2025-06-16, commit time:11:52, hash:e467db79ca8c</authoring_tool>
    </contributor>
    <created>2026-01-20T10:40:16</created>
    <modified>2026-01-20T10:40:16</modified>
    <unit name="meter" meter="1"/>
    <up_axis>Z_UP</up_axis>
  </asset>
  <library_cameras>
    <camera id="Camera-camera" name="Camera">
      <optics>
        <technique_common>
          <perspective>
            <xfov sid="xfov">39.59775</xfov>
            <aspect_ratio>1.777778</aspect_ratio>
            <znear sid="znear">0.1</znear>
            <zfar sid="zfar">100</zfar>
          </perspective>
        </technique_common>
      </optics>
      <extra>
        <technique profile="blender">
          <shiftx sid="shiftx" type="float">0</shiftx>
          <shifty sid="shifty" type="float">0</shifty>
          <dof_distance sid="dof_distance" type="float">10</dof_distance>
        </technique>
      </extra>
    </camera>
  </library_cameras>
  <library_lights>
    <light id="Light-light" name="Light">
      <technique_common>
        <point>
          <color sid="color">1000 1000 1000</color>
          <constant_attenuation>1</constant_attenuation>
          <linear_attenuation>0</linear_attenuation>
          <quadratic_attenuation>0.00111109</quadratic_attenuation>
        </point>
      </technique_common>
      <extra>
        <technique profile="blender">
          <type sid="type" type="int">0</type>
          <flag sid="flag" type="int">0</flag>
          <mode sid="mode" type="int">1</mode>
          <gamma sid="blender_gamma" type="float">1</gamma>
          <red sid="red" type="float">1</red>
          <green sid="green" type="float">1</green>
          <blue sid="blue" type="float">1</blue>
          <shadow_r sid="blender_shadow_r" type="float">0</shadow_r>
          <shadow_g sid="blender_shadow_g" type="float">0</shadow_g>
          <shadow_b sid="blender_shadow_b" type="float">0</shadow_b>
          <energy sid="blender_energy" type="float">1000</energy>
          <dist sid="blender_dist" type="float">29.99998</dist>
          <spotsize sid="spotsize" type="float">75</spotsize>
          <spotblend sid="spotblend" type="float">0.15</spotblend>
          <att1 sid="att1" type="float">0</att1>
          <att2 sid="att2" type="float">1</att2>
          <falloff_type sid="falloff_type" type="int">2</falloff_type>
          <clipsta sid="clipsta" type="float">0.04999995</clipsta>
          <clipend sid="clipend" type="float">30.002</clipend>
          <bias sid="bias" type="float">1</bias>
          <bufsize sid="bufsize" type="int">2880</bufsize>
          <samp sid="samp" type="int">3</samp>
          <buffers sid="buffers" type="int">1</buffers>
          <radius sid="radius" type="float">0.1</radius>
          <area_shape sid="area_shape" type="int">1</area_shape>
          <area_size sid="area_size" type="float">0.1</area_size>
          <area_sizey sid="area_sizey" type="float">0.1</area_sizey>
          <area_sizez sid="area_sizez" type="float">1</area_sizez>
        </technique>
      </extra>
    </light>
  </library_lights>
  <library_effects>
    <effect id="wood-effect">
      <profile_COMMON>
        <newparam sid="wood_jpg-surface">
          <surface type="2D">
            <init_from>wood_jpg</init_from>
          </surface>
        </newparam>
        <newparam sid="wood_jpg-sampler">
          <sampler2D>
            <source>wood_jpg-surface</source>
          </sampler2D>
        </newparam>
        <technique sid="common">
          <lambert>
            <emission>
              <color sid="emission">0 0 0 1</color>
            </emission>
            <diffuse>
              <texture texture="wood_jpg-sampler" texcoord="UVMap"/>
            </diffuse>
            <index_of_refraction>
              <float sid="ior">1.45</float>
            </index_of_refraction>
          </lambert>
        </technique>
      </profile_COMMON>
    </effect>
    <effect id="材质_002-effect">
      <profile_COMMON>
        <newparam sid="wood_jpg-surface">
          <surface type="2D">
            <init_from>wood_jpg</init_from>
          </surface>
        </newparam>
        <newparam sid="wood_jpg-sampler">
          <sampler2D>
            <source>wood_jpg-surface</source>
          </sampler2D>
        </newparam>
        <technique sid="common">
          <lambert>
            <emission>
              <color sid="emission">0 0 0 1</color>
            </emission>
            <diffuse>
              <texture texture="wood_jpg-sampler" texcoord="UVMap"/>
            </diffuse>
            <index_of_refraction>
              <float sid="ior">1.45</float>
            </index_of_refraction>
          </lambert>
        </technique>
      </profile_COMMON>
    </effect>
  </library_effects>
  <library_images>
    <image id="wood_jpg" name="wood_jpg">
      <init_from>wood.jpg</init_from>
    </image>
  </library_images>
  <library_materials>
    <material id="wood-material" name="wood-material">
      <instance_effect url="#wood-effect"/>
    </material>
  </library_materials>
  <library_geometries>
    <geometry id="bookshelf-mesh" name="bookshelf">
      <mesh>
        <source id="bookshelf-mesh-positions">
          <float_array id="bookshelf-mesh-positions-array" count="96">-10.00334 32.49966 64.85601 12.49666 32.49966 64.85601 -10.00334 -32.50034 64.85601 12.49666 -32.50034 64.85601 12.49666 -32.50034 34.856 -10.00334 -32.50034 34.856 -10.00334 32.49966 34.856 12.49666 32.49966 34.856 12.49666 -32.50034 32.356 -10.00334 -32.50034 32.356 12.49666 32.49966 32.356 -10.00334 32.49966 32.356 -10.00334 -32.50034 4.856 -10.00334 32.49966 4.856 12.49666 32.49966 4.856 12.49666 -32.50034 4.856 -12.50334 -35.00034 -0.1439999 -12.50334 34.99966 -0.1439999 12.49666 -35.00034 -0.1439999 12.49666 34.99966 -0.1439999 -10.00334 -32.50034 67.35601 -10.00334 -32.50034 97.35601 12.49666 -32.50034 67.35601 12.49666 -32.50034 97.35601 -10.00334 32.49966 97.35601 12.49666 32.49966 97.35601 -10.00334 32.49966 67.35601 12.49666 32.49966 67.35601 12.49666 -35.00034 99.85601 -12.50334 -35.00034 99.85601 12.49666 34.99966 99.85601 -12.50334 34.99966 99.85601</float_array>
          <technique_common>
            <accessor source="#bookshelf-mesh-positions-array" count="32" stride="3">
              <param name="X" type="float"/>
              <param name="Y" type="float"/>
              <param name="Z" type="float"/>
            </accessor>
          </technique_common>
        </source>
        <source id="bookshelf-mesh-normals">
          <float_array id="bookshelf-mesh-normals-array" count="33">0 0 -1 0 1 0 1 0 0 0 -1 0 0 0 1 1 -1.6276e-6 0 1 2.44141e-7 0 1 -1.2207e-6 0 1 1.6276e-6 0 1 -2.44141e-7 0 -1 0 0</float_array>
          <technique_common>
            <accessor source="#bookshelf-mesh-normals-array" count="11" stride="3">
              <param name="X" type="float"/>
              <param name="Y" type="float"/>
              <param name="Z" type="float"/>
            </accessor>
          </technique_common>
        </source>
        <source id="bookshelf-mesh-map-0">
          <float_array id="bookshelf-mesh-map-0-array" count="360">0.998999 0.998999 0.002002 0.998999 0.998999 0.002002 0.997998 0.001001 0.001001 0.997998 0.001001 0.001001 0.998999 0.998999 0.998999 0.002002 0.002002 0.998999 0.001001 0.997998 0.997998 0.001001 0.001001 0.001001 0.998999 0.998999 0.002002 0.998999 0.998999 0.002002 0.997998 0.001001 0.001001 0.997998 0.001001 0.001001 0.998999 0.998999 0.998999 0.002002 0.002002 0.998999 0.001001 0.997998 0.997998 0.001001 0.001001 0.001001 0.998999 0.998999 0.002002 0.998999 0.998999 0.002002 0.997998 0.001001 0.001001 0.997998 0.001001 0.001001 0.998999 0.998999 0.002002 0.998999 0.998999 0.002002 0.997998 0.001001 0.001001 0.997998 0.001001 0.001001 0.998999 0.998999 0.002002 0.998999 0.998999 0.002002 0.997998 0.001001 0.001001 0.997998 0.001001 0.001001 0.998999 0.998999 0.998999 0.002002 0.002002 0.998999 0.001001 0.997998 0.997998 0.001001 0.001001 0.001001 0.998999 0.998999 0.998999 0.002002 0.002002 0.998999 0.001001 0.997998 0.997998 0.001001 0.001001 0.001001 0.998999 0.998999 0.998999 0.002002 0.002002 0.998999 0.001001 0.997998 0.997998 0.001001 0.001001 0.001001 0.998999 0.998999 0.998999 0.002002 0.002002 0.998999 0.001001 0.997998 0.997998 0.001001 0.001001 0.001001 0.998999 0.998999 0.998999 0.002002 0.002002 0.998999 0.001001 0.997998 0.997998 0.001001 0.001001 0.001001 0.998999 0.998999 0.998999 0.002002 0.002002 0.998999 0.001001 0.997998 0.997998 0.001001 0.001001 0.001001 0.998999 0.998999 0.002002 0.998999 0.998999 0.002002 0.997998 0.001001 0.001001 0.997998 0.001001 0.001001 0.998999 0.998999 0.998999 0.002002 0.002002 0.998999 0.001001 0.997998 0.997998 0.001001 0.001001 0.001001 0.998999 0.998999 0.002002 0.998999 0.998999 0.002002 0.997998 0.001001 0.001001 0.997998 0.001001 0.001001 0.998999 0.998999 0.998999 0.002002 0.002002 0.998999 0.001001 0.997998 0.997998 0.001001 0.001001 0.001001 0 0 1 0 1 1 0 0 1 0 1 1 0 0 1 0 1 1 0 0 1 0 1 1 0 0 1 0 1 1 0 0 1 0 1 1 0 0 1 0 1 1 0 0 1 0 1 1 0 0 1 0 1 1 0 0 1 0 1 1 0 0 1 0 1 1 0 0 1 0 1 1 0 0 1 0 1 1 0 0 1 0 1 1 0 0 1 0 1 1 0 0 1 0 1 1 0 0 1 0 1 1 0 0 1 0 1 1 0 0 1 0 1 1 0 0 1 0 1 1 0.998999 0.998999 0.998999 0.002002 0.002002 0.998999 0.001001 0.997998 0.997998 0.001001 0.001001 0.001001 0.998999 0.998999 0.998999 0.002002 0.002002 0.998999 0.001001 0.997998 0.997998 0.001001 0.001001 0.001001 0.998999 0.998999 0.998999 0.002002 0.002002 0.998999 0.001001 0.997998 0.997998 0.001001 0.001001 0.001001</float_array>
          <technique_common>
            <accessor source="#bookshelf-mesh-map-0-array" count="180" stride="2">
              <param name="S" type="float"/>
              <param name="T" type="float"/>
            </accessor>
          </technique_common>
        </source>
        <vertices id="bookshelf-mesh-vertices">
          <input semantic="POSITION" source="#bookshelf-mesh-positions"/>
        </vertices>
        <triangles material="wood-material" count="60">
          <input semantic="VERTEX" source="#bookshelf-mesh-vertices" offset="0"/>
          <input semantic="NORMAL" source="#bookshelf-mesh-normals" offset="1"/>
          <input semantic="TEXCOORD" source="#bookshelf-mesh-map-0" offset="2" set="0"/>
          <p>0 0 0 1 0 1 2 0 2 2 0 3 1 0 4 3 0 5 3 1 6 4 1 7 2 1 8 2 1 9 4 1 10 5 1 11 2 2 12 5 2 13 0 2 14 0 2 15 5 2 16 6 2 17 0 3 18 6 3 19 1 3 20 1 3 21 6 3 22 7 3 23 7 4 24 6 4 25 4 4 26 4 4 27 6 4 28 5 4 29 8 0 30 9 0 31 10 0 32 10 0 33 9 0 34 11 0 35 9 2 36 12 2 37 11 2 38 11 2 39 12 2 40 13 2 41 11 3 42 13 3 43 10 3 44 10 3 45 13 3 46 14 3 47 15 4 48 14 4 49 12 4 50 12 4 51 14 4 52 13 4 53 8 1 54 15 1 55 9 1 56 9 1 57 15 1 58 12 1 59 16 0 60 17 0 61 18 0 62 18 0 63 17 0 64 19 0 65 20 1 66 21 1 67 22 1 68 22 1 69 21 1 70 23 1 71 21 0 72 24 0 73 23 0 74 23 0 75 24 0 76 25 0 77 26 2 78 24 2 79 20 2 80 20 2 81 24 2 82 21 2 83 27 3 84 25 3 85 26 3 86 26 3 87 25 3 88 24 3 89 20 4 90 22 4 91 26 4 92 26 4 93 22 4 94 27 4 95 18 3 96 28 3 97 16 3 98 16 3 99 28 3 100 29 3 101 10 2 102 7 2 103 8 2 104 8 2 105 7 2 106 4 2 107 8 2 108 4 2 109 18 2 110 18 5 111 4 5 112 3 5 113 18 6 114 3 6 115 28 6 116 28 7 117 3 7 118 22 7 119 28 2 120 22 2 121 23 2 122 7 2 123 10 2 124 19 2 125 19 2 126 10 2 127 14 2 128 19 2 129 14 2 130 15 2 131 19 2 132 15 2 133 18 2 134 18 2 135 15 2 136 8 2 137 22 2 138 3 2 139 27 2 140 27 2 141 3 2 142 1 2 143 27 2 144 1 2 145 30 2 146 30 8 147 1 8 148 7 8 149 30 9 150 7 9 151 19 9 152 28 2 153 23 2 154 30 2 155 30 2 156 23 2 157 25 2 158 30 2 159 25 2 160 27 2 161 28 4 162 30 4 163 29 4 164 29 4 165 30 4 166 31 4 167 16 10 168 29 10 169 17 10 170 17 10 171 29 10 172 31 10 173 17 1 174 31 1 175 19 1 176 19 1 177 31 1 178 30 1 179</p>
        </triangles>
      </mesh>
    </geometry>
  </library_geometries>
  <library_visual_scenes>
    <visual_scene id="Scene" name="Scene">
      <node id="bookshelf" name="bookshelf" type="NODE">
        <matrix sid="transform">1 0 0 0 0 1 0 0 0 0 1 0 0 0 0 1</matrix>
        <instance_geometry url="#bookshelf-mesh" name="bookshelf">
          <bind_material>
            <technique_common>
              <instance_material symbol="wood-material" target="#wood-material">
                <bind_vertex_input semantic="UVMap" input_semantic="TEXCOORD" input_set="0"/>
              </instance_material>
            </technique_common>
          </bind_material>
        </instance_geometry>
      </node>
      <node id="Camera" name="Camera" type="NODE">
        <matrix sid="transform">0.6859207 -0.3240135 0.6515582 7.358891 0.7276763 0.3054208 -0.6141704 -6.925791 0 0.8953956 0.4452714 4.958309 0 0 0 1</matrix>
        <instance_camera url="#Camera-camera"/>
      </node>
      <node id="Light" name="Light" type="NODE">
        <matrix sid="transform">-0.2908646 -0.7711008 0.5663932 4.076245 0.9551712 -0.1998834 0.2183912 1.005454 -0.05518906 0.6045247 0.7946723 5.903862 0 0 0 1</matrix>
        <instance_light url="#Light-light"/>
      </node>
    </visual_scene>
  </library_visual_scenes>
  <scene>
    <instance_visual_scene url="#Scene"/>
  </scene>
</COLLADA>